<svg xmlns="http://www.w3.org/2000/svg" viewBox="0 0 44.99 51.45">
  <defs>
    <style>
      .cls-1{
        isolation:isolate;
      }
      .cls-2{
        fill:black;
      }
      @media (prefers-color-scheme: dark) {
        .cls-2{
          fill:white;
        }
      }
    </style>
  </defs>
  <g class="cls-1">
    <g id="Layer_2" data-name="Layer 2">
      <g id="Layer_1-2" data-name="Layer 1">
        <g class="cls-2">
          <path d="M0,50l2.38-6.83a8.94,8.94,0,0,0,3.2,1.06c1.31,0,1.88-1.19,1.88-4V13.1h7.39V41.61c0,6.27-3,9.84-8.27,9.84A17.63,17.63,0,0,1,0,50ZM10.9,0a4.79,4.79,0,0,1,4.77,4.7A4.77,4.77,0,0,1,11,9.34,4.71,4.71,0,0,1,6.14,4.7,4.83,4.83,0,0,1,10.9,0Z"/>
          <path d="M29.39,1.88V14.6a11.6,11.6,0,0,1,6.2-2.13c5.58,0,9.4,3.89,9.4,10.91V39.1H37.72V24c0-3.57-1.56-4.57-3.07-4.57-3.25,0-5.26,1.81-5.26,7.58V39.1H22.12V1.88Z"/>
        </g>
      </g>
    </g>
  </g>
</svg>