<?xml version="1.0" encoding="UTF-8"?>
<svg id="Layer_1" data-name="Layer 1" xmlns="http://www.w3.org/2000/svg" version="1.1" viewBox="0 0 45 51.5">
  <defs>
    <style>
      .cls-1 {
        fill: #fff;
        stroke-width: 0px;
      }
    </style>
  </defs>
  <g id="Layer_2" data-name="Layer 2">
    <g id="Layer_1-2" data-name="Layer 1-2">
      <g>
        <path class="cls-1" d="M0,50l2.4-6.8c1,.6,2.1.9,3.2,1.1,1.3,0,1.9-1.2,1.9-4V13.1h7.4v28.5c0,6.3-3,9.8-8.3,9.8-2.3,0-4.5-.5-6.6-1.5ZM10.9,0c2.6,0,4.7,2.1,4.8,4.7,0,2.5-2.1,4.6-4.7,4.6-2.6,0-4.8-2-4.9-4.6,0,0,0,0,0,0C6.2,2.1,8.3,0,10.9,0Z"/>
        <path class="cls-1" d="M29.4,1.9v12.7c1.8-1.3,4-2,6.2-2.1,5.6,0,9.4,3.9,9.4,10.9v15.7h-7.3v-15.1c0-3.6-1.6-4.6-3.1-4.6-3.2,0-5.3,1.8-5.3,7.6v12.1h-7.3V1.9h7.3Z"/>
      </g>
    </g>
  </g>
</svg>