<svg xmlns="http://www.w3.org/2000/svg" width="105.38" height="117.112" viewBox="0 0 105.38 117.112"><path d="M91.235,17.463a2.72,2.72,0,0,1-1.347-.351c-11.243-5.8-20.963-8.256-32.616-8.256a66.992,66.992,0,0,0-32.616,8.256,2.935,2.935,0,1,1-2.811-5.153A73.526,73.526,0,0,1,57.273,3c12.472,0,23.364,2.752,35.309,8.9a2.964,2.964,0,0,1-1.347,5.563ZM7.442,48.205a3.051,3.051,0,0,1-1.7-.527,2.92,2.92,0,0,1-.7-4.1A60.541,60.541,0,0,1,27,24.432a67.593,67.593,0,0,1,60.371-.059A60.771,60.771,0,0,1,109.329,43.4a2.941,2.941,0,0,1-4.8,3.4A54.971,54.971,0,0,0,84.677,29.584c-16.806-8.608-38.3-8.608-55.043.059A55.55,55.55,0,0,0,9.725,46.976a2.553,2.553,0,0,1-2.284,1.23Zm36.6,70.677A2.747,2.747,0,0,1,41.99,118a59.2,59.2,0,0,1-11.77-15.459,51.98,51.98,0,0,1-6.148-25.413c0-17.391,14.873-31.562,33.143-31.562S90.357,59.741,90.357,77.132a2.928,2.928,0,0,1-5.856,0c0-14.171-12.238-25.706-27.287-25.706S29.927,62.962,29.927,77.132a45.874,45.874,0,0,0,5.446,22.544,55.427,55.427,0,0,0,10.833,14.171,3.007,3.007,0,0,1,0,4.157A3.212,3.212,0,0,1,44.039,118.883ZM86.024,108.05a31.534,31.534,0,0,1-18.152-5.212A31.177,31.177,0,0,1,53.935,77.132a2.928,2.928,0,1,1,5.856,0,25.186,25.186,0,0,0,11.36,20.846,25.675,25.675,0,0,0,14.873,4.157,38.7,38.7,0,0,0,6.09-.586,2.941,2.941,0,1,1,1,5.8,39.987,39.987,0,0,1-7.085.7Zm-11.77,12.063a3.427,3.427,0,0,1-.761-.117c-9.31-2.576-15.4-6.031-21.783-12.3A42.726,42.726,0,0,1,39,77.132c0-9.486,8.081-17.216,18.035-17.216s18.035,7.729,18.035,17.216c0,6.266,5.446,11.36,12.18,11.36s12.18-5.094,12.18-11.36c0-22.076-19.031-39.994-42.453-39.994-16.63,0-31.855,9.252-38.706,23.6a37.669,37.669,0,0,0-3.455,16.4,58.19,58.19,0,0,0,3.923,21.139,2.858,2.858,0,0,1-1.7,3.748,2.9,2.9,0,0,1-3.748-1.7A65.235,65.235,0,0,1,9.023,77.132,43.992,43.992,0,0,1,13,58.16C20.792,41.823,38.066,31.224,56.98,31.224c26.643,0,48.309,20.553,48.309,45.849,0,9.486-8.081,17.216-18.035,17.216S69.218,86.56,69.218,77.074c0-6.266-5.446-11.36-12.18-11.36s-12.18,5.094-12.18,11.36a36.875,36.875,0,0,0,10.95,26.409c5.563,5.5,10.891,8.549,19.148,10.833a2.906,2.906,0,0,1,2.049,3.572,2.857,2.857,0,0,1-2.752,2.225Z" transform="translate(-4.495 -3)" fill="currentColor"/></svg>